<svg width="30" height="30" viewBox="0 0 30 30" fill="none" xmlns="http://www.w3.org/2000/svg">
<path d="M14.537 2.10352C11.8874 2.10664 9.34717 3.16058 7.47361 5.03414C5.60005 6.90771 4.54611 9.4479 4.54298 12.0975C4.53981 14.2628 5.24708 16.3693 6.55632 18.0939C6.55632 18.0939 6.82888 18.4528 6.8734 18.5046L14.537 27.5428L22.2042 18.5C22.2442 18.4519 22.5176 18.0939 22.5176 18.0939L22.5186 18.0912C23.8271 16.3673 24.5341 14.2618 24.531 12.0975C24.5279 9.4479 23.4739 6.90771 21.6004 5.03414C19.7268 3.16058 17.1866 2.10664 14.537 2.10352ZM14.537 15.7317C13.8182 15.7317 13.1156 15.5186 12.5179 15.1192C11.9203 14.7199 11.4545 14.1523 11.1794 13.4883C10.9044 12.8242 10.8324 12.0935 10.9726 11.3885C11.1129 10.6836 11.459 10.036 11.9672 9.52776C12.4755 9.01951 13.123 8.67339 13.828 8.53316C14.533 8.39294 15.2637 8.46491 15.9277 8.73997C16.5918 9.01503 17.1594 9.48084 17.5587 10.0785C17.958 10.6761 18.1712 11.3787 18.1712 12.0975C18.17 13.061 17.7867 13.9847 17.1054 14.6659C16.4241 15.3472 15.5005 15.7305 14.537 15.7317Z" fill="white"/>
</svg>
