<svg width="150" height="51" viewBox="0 0 150 51" fill="none" xmlns="http://www.w3.org/2000/svg">
<path d="M131.288 50.4076C130.679 50.4076 130.156 50.1922 129.719 49.7613C129.288 49.3243 129.072 48.8011 129.072 48.1917C129.072 47.5885 129.288 47.0714 129.719 46.6406C130.156 46.2097 130.679 45.9943 131.288 45.9943C131.879 45.9943 132.396 46.2097 132.839 46.6406C133.282 47.0714 133.504 47.5885 133.504 48.1917C133.504 48.598 133.399 48.9703 133.19 49.3089C132.987 49.6413 132.719 49.909 132.387 50.1122C132.055 50.3091 131.688 50.4076 131.288 50.4076Z" fill="#008080"/>
<path d="M126.189 40.0298L122.588 40.2514C122.527 39.9437 122.395 39.6667 122.191 39.4205C121.988 39.1681 121.721 38.9681 121.388 38.8203C121.062 38.6664 120.671 38.5895 120.216 38.5895C119.606 38.5895 119.092 38.7188 118.674 38.9773C118.255 39.2297 118.046 39.5682 118.046 39.9929C118.046 40.3315 118.181 40.6177 118.452 40.8516C118.723 41.0855 119.188 41.2732 119.846 41.4148L122.413 41.9318C123.792 42.215 124.82 42.6705 125.497 43.2983C126.174 43.9261 126.512 44.751 126.512 45.7727C126.512 46.7022 126.239 47.5178 125.691 48.2195C125.149 48.9212 124.404 49.469 123.456 49.8629C122.515 50.2507 121.428 50.4446 120.197 50.4446C118.32 50.4446 116.824 50.0538 115.71 49.272C114.602 48.4842 113.953 47.4131 113.762 46.059L117.63 45.8558C117.747 46.4283 118.03 46.8653 118.48 47.1669C118.929 47.4624 119.505 47.6101 120.206 47.6101C120.896 47.6101 121.45 47.4778 121.868 47.2131C122.293 46.9422 122.508 46.5945 122.515 46.1698C122.508 45.8128 122.358 45.5204 122.062 45.2926C121.767 45.0587 121.311 44.8802 120.696 44.7571L118.24 44.2678C116.855 43.9908 115.824 43.5107 115.147 42.8274C114.476 42.1442 114.14 41.2732 114.14 40.2145C114.14 39.3035 114.386 38.5187 114.879 37.8601C115.377 37.2015 116.076 36.6937 116.975 36.3367C117.88 35.9797 118.938 35.8011 120.151 35.8011C121.942 35.8011 123.352 36.1797 124.38 36.9368C125.414 37.6939 126.017 38.7249 126.189 40.0298Z" fill="#008080"/>
<path d="M105.313 50.4446C103.855 50.4446 102.599 50.1492 101.546 49.5583C100.5 48.9612 99.6935 48.1179 99.1273 47.0284C98.561 45.9328 98.2778 44.6371 98.2778 43.1413C98.2778 41.6825 98.561 40.4022 99.1273 39.3004C99.6935 38.1986 100.491 37.34 101.519 36.7244C102.553 36.1089 103.765 35.8011 105.156 35.8011C106.092 35.8011 106.963 35.952 107.769 36.2536C108.582 36.549 109.29 36.9953 109.893 37.5923C110.502 38.1894 110.976 38.9404 111.315 39.8452C111.653 40.7439 111.823 41.7964 111.823 43.0029V44.0831H99.8474V41.6456H108.12C108.12 41.0793 107.997 40.5777 107.751 40.1406C107.505 39.7036 107.163 39.362 106.726 39.1158C106.295 38.8634 105.793 38.7372 105.221 38.7372C104.624 38.7372 104.095 38.8757 103.633 39.1527C103.177 39.4235 102.82 39.7898 102.562 40.2514C102.303 40.7069 102.171 41.2147 102.165 41.7749V44.0923C102.165 44.794 102.294 45.4003 102.553 45.9112C102.817 46.4221 103.19 46.8161 103.67 47.0931C104.15 47.37 104.719 47.5085 105.378 47.5085C105.815 47.5085 106.215 47.447 106.578 47.3239C106.941 47.2008 107.252 47.0161 107.511 46.7699C107.769 46.5237 107.966 46.2221 108.102 45.8651L111.739 46.1051C111.555 46.9792 111.176 47.7424 110.604 48.3949C110.038 49.0412 109.305 49.5459 108.406 49.9091C107.514 50.2661 106.483 50.4446 105.313 50.4446Z" fill="#008080"/>
<path d="M91.7664 50.1676V35.9858H95.6996V50.1676H91.7664ZM93.7422 34.1576C93.1575 34.1576 92.6558 33.9637 92.2373 33.576C91.8249 33.182 91.6187 32.7111 91.6187 32.1633C91.6187 31.6216 91.8249 31.1569 92.2373 30.7691C92.6558 30.3752 93.1575 30.1782 93.7422 30.1782C94.327 30.1782 94.8256 30.3752 95.238 30.7691C95.6565 31.1569 95.8658 31.6216 95.8658 32.1633C95.8658 32.7111 95.6565 33.182 95.238 33.576C94.8256 33.9637 94.327 34.1576 93.7422 34.1576Z" fill="#008080"/>
<path d="M81.1274 50.1677V35.9858H84.9407V38.4603H85.0884C85.3469 37.5801 85.7809 36.9153 86.3902 36.466C86.9996 36.0105 87.7013 35.7827 88.4953 35.7827C88.6923 35.7827 88.9047 35.795 89.1324 35.8196C89.3602 35.8443 89.5602 35.8781 89.7326 35.9212V39.4113C89.5479 39.3559 89.2924 39.3066 88.9662 39.2635C88.64 39.2205 88.3415 39.1989 88.0706 39.1989C87.492 39.1989 86.975 39.3251 86.5195 39.5775C86.0701 39.8237 85.7131 40.1684 85.4485 40.6116C85.1899 41.0547 85.0607 41.5656 85.0607 42.1442V50.1677H81.1274Z" fill="#008080"/>
<path d="M78.5654 35.9857V38.9403H70.0249V35.9857H78.5654ZM71.9638 32.588H75.8971V45.8096C75.8971 46.1728 75.9525 46.4559 76.0633 46.659C76.1741 46.856 76.3279 46.9945 76.5249 47.0745C76.728 47.1545 76.9619 47.1945 77.2266 47.1945C77.4113 47.1945 77.5959 47.1792 77.7806 47.1484C77.9652 47.1114 78.1068 47.0838 78.2053 47.0653L78.8239 49.9921C78.6269 50.0537 78.35 50.1245 77.9929 50.2045C77.6359 50.2907 77.202 50.343 76.6911 50.3615C75.7432 50.3984 74.9122 50.2722 74.1982 49.9829C73.4903 49.6936 72.9394 49.2443 72.5455 48.6349C72.1516 48.0255 71.9577 47.2561 71.9638 46.3266V32.588Z" fill="#008080"/>
<path d="M68.2225 40.0298L64.6216 40.2514C64.5601 39.9437 64.4277 39.6667 64.2246 39.4205C64.0215 39.1681 63.7537 38.9681 63.4213 38.8203C63.0951 38.6664 62.7042 38.5895 62.2488 38.5895C61.6394 38.5895 61.1254 38.7188 60.7069 38.9773C60.2883 39.2297 60.079 39.5682 60.079 39.9929C60.079 40.3315 60.2144 40.6177 60.4853 40.8516C60.7561 41.0855 61.2208 41.2732 61.8794 41.4148L64.4462 41.9318C65.825 42.215 66.8529 42.6705 67.53 43.2983C68.2071 43.9261 68.5456 44.751 68.5456 45.7727C68.5456 46.7022 68.2717 47.5178 67.7239 48.2195C67.1822 48.9212 66.4374 49.469 65.4895 49.8629C64.5478 50.2507 63.4614 50.4446 62.2303 50.4446C60.3529 50.4446 58.8572 50.0538 57.7431 49.272C56.6351 48.4842 55.9857 47.4131 55.7949 46.059L59.6635 45.8558C59.7805 46.4283 60.0636 46.8653 60.513 47.1669C60.9623 47.4624 61.5378 47.6101 62.2395 47.6101C62.9289 47.6101 63.4829 47.4778 63.9015 47.2131C64.3262 46.9422 64.5416 46.5945 64.5478 46.1698C64.5416 45.8128 64.3908 45.5204 64.0953 45.2926C63.7999 45.0587 63.3444 44.8802 62.7289 44.7571L60.2729 44.2678C58.888 43.9908 57.857 43.5107 57.1799 42.8274C56.5089 42.1442 56.1735 41.2732 56.1735 40.2145C56.1735 39.3035 56.4197 38.5187 56.9121 37.8601C57.4107 37.2015 58.1093 36.6937 59.008 36.3367C59.9128 35.9797 60.9715 35.8011 62.1841 35.8011C63.9753 35.8011 65.3849 36.1797 66.4128 36.9368C67.4469 37.6939 68.0501 38.7249 68.2225 40.0298Z" fill="#008080"/>
<path d="M49.343 44.1293V35.9858H53.2762V50.1677H49.5V47.5917H49.3522C49.0322 48.4226 48.4997 49.0905 47.7549 49.5952C47.0163 50.0999 46.1145 50.3523 45.0497 50.3523C44.1018 50.3523 43.2677 50.1369 42.5475 49.706C41.8274 49.2751 41.2642 48.6627 40.8579 47.8687C40.4578 47.0746 40.2547 46.1236 40.2485 45.0157V35.9858H44.1818V44.314C44.1879 45.1511 44.4126 45.8128 44.8558 46.2991C45.299 46.7853 45.8929 47.0285 46.6377 47.0285C47.1117 47.0285 47.5549 46.9207 47.9673 46.7053C48.3797 46.4837 48.7121 46.1575 48.9644 45.7266C49.223 45.2957 49.3492 44.7633 49.343 44.1293Z" fill="#008080"/>
<path d="M28.9455 50.3985C27.8683 50.3985 26.8927 50.1215 26.0186 49.5675C25.1507 49.0074 24.4614 48.1856 23.9505 47.1023C23.4457 46.0128 23.1934 44.6771 23.1934 43.0952C23.1934 41.4702 23.455 40.1191 23.9782 39.0419C24.5014 37.9586 25.1969 37.1492 26.0648 36.6137C26.9389 36.072 27.896 35.8012 28.9363 35.8012C29.7303 35.8012 30.392 35.9366 30.9213 36.2074C31.4569 36.4721 31.8877 36.8045 32.214 37.2046C32.5463 37.5985 32.7987 37.9863 32.9711 38.3679H33.0911V31.2585H37.0151V50.1676H33.1373V47.8963H32.9711C32.7864 48.2903 32.5248 48.6811 32.1863 49.0689C31.8539 49.4505 31.4199 49.7675 30.8844 50.0199C30.3551 50.2723 29.7087 50.3985 28.9455 50.3985ZM30.1919 47.2685C30.8259 47.2685 31.3614 47.0961 31.7985 46.7514C32.2417 46.4006 32.5802 45.9112 32.8141 45.2834C33.0542 44.6556 33.1742 43.92 33.1742 43.0767C33.1742 42.2335 33.0572 41.501 32.8233 40.8793C32.5894 40.2576 32.2509 39.7775 31.8077 39.4389C31.3645 39.1004 30.8259 38.9311 30.1919 38.9311C29.5456 38.9311 29.0009 39.1066 28.5577 39.4574C28.1145 39.8083 27.7791 40.2945 27.5513 40.9162C27.3236 41.5379 27.2097 42.2581 27.2097 43.0767C27.2097 43.9015 27.3236 44.6309 27.5513 45.2649C27.7852 45.8928 28.1207 46.3852 28.5577 46.7422C29.0009 47.0931 29.5456 47.2685 30.1919 47.2685Z" fill="#008080"/>
<path d="M11.4786 41.9688V50.1676H7.54541V35.9858H11.294V38.4879H11.4602C11.7741 37.6631 12.3004 37.0107 13.039 36.5306C13.7777 36.0443 14.6733 35.8011 15.7258 35.8011C16.7107 35.8011 17.5693 36.0166 18.3018 36.4475C19.0343 36.8783 19.6037 37.4939 20.0099 38.294C20.4162 39.0881 20.6193 40.036 20.6193 41.1378V50.1676H16.686V41.8395C16.6922 40.9716 16.4706 40.2945 16.0213 39.8083C15.5719 39.3158 14.9533 39.0696 14.1654 39.0696C13.6361 39.0696 13.1683 39.1835 12.762 39.4112C12.3619 39.639 12.048 39.9714 11.8203 40.4084C11.5987 40.8393 11.4848 41.3594 11.4786 41.9688Z" fill="#008080"/>
<path d="M4.33039 31.2585V50.1676H0.33252V31.2585H4.33039Z" fill="#008080"/>
<path d="M140.793 10.9688V19.1676H136.86V0.258545H140.682V7.48795H140.849C141.169 6.65083 141.686 5.99529 142.4 5.52133C143.114 5.04122 144.009 4.80116 145.086 4.80116C146.071 4.80116 146.93 5.01659 147.662 5.44747C148.401 5.87218 148.974 6.48463 149.38 7.28482C149.792 8.07886 149.995 9.02985 149.989 10.1378V19.1676H146.056V10.8395C146.062 9.96546 145.84 9.2853 145.391 8.79903C144.948 8.31276 144.326 8.06963 143.526 8.06963C142.991 8.06963 142.517 8.1835 142.104 8.41124C141.698 8.63899 141.378 8.97138 141.144 9.4084C140.916 9.83927 140.799 10.3594 140.793 10.9688Z" fill="#008080"/>
<path d="M134.06 9.02984L130.46 9.25143C130.398 8.94367 130.266 8.66668 130.062 8.42047C129.859 8.1681 129.592 7.96805 129.259 7.82032C128.933 7.66644 128.542 7.5895 128.087 7.5895C127.477 7.5895 126.963 7.71876 126.545 7.97728C126.126 8.22965 125.917 8.56819 125.917 8.99291C125.917 9.33145 126.052 9.61767 126.323 9.85157C126.594 10.0855 127.059 10.2732 127.717 10.4148L130.284 10.9318C131.663 11.215 132.691 11.6705 133.368 12.2983C134.045 12.9261 134.384 13.751 134.384 14.7727C134.384 15.7022 134.11 16.5178 133.562 17.2195C133.02 17.9212 132.275 18.469 131.327 18.8629C130.386 19.2507 129.299 19.4446 128.068 19.4446C126.191 19.4446 124.695 19.0538 123.581 18.272C122.473 17.4841 121.824 16.4131 121.633 15.059L125.501 14.8558C125.618 15.4283 125.902 15.8653 126.351 16.1669C126.8 16.4624 127.376 16.6101 128.077 16.6101C128.767 16.6101 129.321 16.4778 129.739 16.2131C130.164 15.9422 130.379 15.5945 130.386 15.1698C130.379 14.8127 130.229 14.5204 129.933 14.2926C129.638 14.0587 129.182 13.8802 128.567 13.7571L126.111 13.2678C124.726 12.9908 123.695 12.5107 123.018 11.8274C122.347 11.1442 122.011 10.2732 122.011 9.2145C122.011 8.30351 122.258 7.51871 122.75 6.8601C123.249 6.20148 123.947 5.69367 124.846 5.33666C125.751 4.97965 126.809 4.80115 128.022 4.80115C129.813 4.80115 131.223 5.1797 132.251 5.9368C133.285 6.6939 133.888 7.72492 134.06 9.02984Z" fill="#008080"/>
<path d="M111.222 19.4354C110.318 19.4354 109.511 19.2784 108.803 18.9645C108.096 18.6444 107.535 18.1735 107.123 17.5519C106.717 16.924 106.514 16.1423 106.514 15.2067C106.514 14.4188 106.658 13.7571 106.948 13.2216C107.237 12.6861 107.631 12.2552 108.129 11.929C108.628 11.6028 109.194 11.3565 109.828 11.1904C110.468 11.0242 111.139 10.9072 111.841 10.8395C112.666 10.7533 113.331 10.6733 113.835 10.5994C114.34 10.5194 114.706 10.4025 114.934 10.2486C115.162 10.0947 115.276 9.86696 115.276 9.56535V9.50995C115.276 8.9252 115.091 8.47279 114.722 8.15271C114.359 7.83263 113.842 7.6726 113.171 7.6726C112.463 7.6726 111.9 7.82956 111.481 8.14348C111.062 8.45124 110.785 8.83903 110.65 9.30683L107.012 9.01137C107.197 8.14963 107.56 7.40484 108.102 6.777C108.643 6.143 109.342 5.65673 110.198 5.31819C111.059 4.9735 112.057 4.80115 113.189 4.80115C113.977 4.80115 114.731 4.89348 115.451 5.07814C116.177 5.26279 116.821 5.54902 117.381 5.9368C117.947 6.32458 118.393 6.82316 118.72 7.43254C119.046 8.03576 119.209 8.75901 119.209 9.60228V19.1676H115.479V17.201H115.368C115.14 17.6442 114.836 18.035 114.454 18.3736C114.072 18.706 113.614 18.9676 113.078 19.1584C112.543 19.3431 111.924 19.4354 111.222 19.4354ZM112.349 16.7209C112.927 16.7209 113.438 16.607 113.882 16.3793C114.325 16.1454 114.673 15.8314 114.925 15.4375C115.177 15.0436 115.303 14.5973 115.303 14.0987V12.5938C115.18 12.6738 115.011 12.7476 114.796 12.8154C114.586 12.8769 114.349 12.9354 114.085 12.9908C113.82 13.04 113.555 13.0862 113.291 13.1293C113.026 13.1662 112.786 13.2001 112.57 13.2308C112.109 13.2985 111.706 13.4063 111.361 13.554C111.016 13.7017 110.749 13.9018 110.558 14.1541C110.367 14.4003 110.271 14.7081 110.271 15.0774C110.271 15.6129 110.465 16.0223 110.853 16.3054C111.247 16.5824 111.746 16.7209 112.349 16.7209Z" fill="#008080"/>
<path d="M86.0926 19.1676L80.6821 0.258545H85.0493L88.1793 13.397H88.3362L91.7894 0.258545H95.5287L98.9726 13.4247H99.1388L102.269 0.258545H106.636L101.225 19.1676H97.3291L93.7283 6.80471H93.5806L89.9889 19.1676H86.0926Z" fill="#008080"/>
<path d="M78.6115 0.258545V19.1676H74.6782V0.258545H78.6115Z" fill="#008080"/>
<path d="M63.6404 19.4354C62.7356 19.4354 61.9293 19.2784 61.2214 18.9645C60.5136 18.6444 59.9534 18.1735 59.541 17.5519C59.1348 16.924 58.9316 16.1423 58.9316 15.2067C58.9316 14.4188 59.0763 13.7571 59.3656 13.2216C59.6549 12.6861 60.0488 12.2552 60.5474 11.929C61.046 11.6028 61.6123 11.3565 62.2463 11.1904C62.8864 11.0242 63.5574 10.9072 64.2591 10.8395C65.0839 10.7533 65.7486 10.6733 66.2534 10.5994C66.7581 10.5194 67.1244 10.4025 67.3521 10.2486C67.5798 10.0947 67.6937 9.86696 67.6937 9.56535V9.50995C67.6937 8.9252 67.5091 8.47279 67.1397 8.15271C66.7766 7.83263 66.2595 7.6726 65.5886 7.6726C64.8807 7.6726 64.3175 7.82956 63.899 8.14348C63.4804 8.45124 63.2034 8.83903 63.068 9.30683L59.4302 9.01137C59.6149 8.14963 59.978 7.40484 60.5197 6.777C61.0614 6.143 61.76 5.65673 62.6156 5.31819C63.4773 4.9735 64.4745 4.80115 65.6071 4.80115C66.3949 4.80115 67.149 4.89348 67.8691 5.07814C68.5955 5.26279 69.2387 5.54902 69.7988 5.9368C70.3651 6.32458 70.8114 6.82316 71.1376 7.43254C71.4638 8.03576 71.627 8.75901 71.627 9.60228V19.1676H67.8968V17.201H67.786C67.5583 17.6442 67.2536 18.035 66.872 18.3736C66.4903 18.706 66.0318 18.9676 65.4963 19.1584C64.9608 19.3431 64.3422 19.4354 63.6404 19.4354ZM64.7669 16.7209C65.3455 16.7209 65.8564 16.607 66.2995 16.3793C66.7427 16.1454 67.0905 15.8314 67.3429 15.4375C67.5952 15.0436 67.7214 14.5973 67.7214 14.0987V12.5938C67.5983 12.6738 67.429 12.7476 67.2136 12.8154C67.0043 12.8769 66.7673 12.9354 66.5027 12.9908C66.238 13.04 65.9733 13.0862 65.7086 13.1293C65.4439 13.1662 65.2039 13.2001 64.9885 13.2308C64.5268 13.2985 64.1236 13.4063 63.7789 13.554C63.4342 13.7017 63.1665 13.9018 62.9757 14.1541C62.7849 14.4003 62.6895 14.7081 62.6895 15.0774C62.6895 15.6129 62.8833 16.0223 63.2711 16.3054C63.6651 16.5824 64.1636 16.7209 64.7669 16.7209Z" fill="#008080"/>
<path d="M43.1411 19.1676V0.258545H47.0744V7.36792H47.1944C47.3667 6.98629 47.616 6.59851 47.9422 6.20457C48.2746 5.80447 48.7055 5.47209 49.2349 5.20741C49.7704 4.93658 50.4351 4.80116 51.2292 4.80116C52.2633 4.80116 53.2173 5.07199 54.0914 5.61366C54.9654 6.14917 55.6641 6.95859 56.1873 8.04193C56.7105 9.1191 56.9721 10.4702 56.9721 12.0952C56.9721 13.6771 56.7166 15.0128 56.2057 16.1023C55.701 17.1856 55.0116 18.0074 54.1376 18.5675C53.2697 19.1215 52.2971 19.3985 51.2199 19.3985C50.4567 19.3985 49.8073 19.2723 49.2718 19.0199C48.7424 18.7675 48.3085 18.4505 47.9699 18.0689C47.6314 17.6811 47.3729 17.2903 47.1944 16.8963H47.019V19.1676H43.1411ZM46.9913 12.0767C46.9913 12.92 47.1082 13.6556 47.3421 14.2834C47.576 14.9112 47.9145 15.4006 48.3577 15.7514C48.8009 16.0961 49.3395 16.2685 49.9735 16.2685C50.6137 16.2685 51.1553 16.0931 51.5985 15.7422C52.0417 15.3852 52.3771 14.8928 52.6049 14.2649C52.8388 13.6309 52.9557 12.9015 52.9557 12.0767C52.9557 11.2581 52.8419 10.5379 52.6141 9.91622C52.3864 9.29453 52.0509 8.80826 51.6077 8.45741C51.1645 8.10656 50.6198 7.93113 49.9735 7.93113C49.3333 7.93113 48.7917 8.1004 48.3485 8.43894C47.9115 8.77748 47.576 9.2576 47.3421 9.87928C47.1082 10.501 46.9913 11.2335 46.9913 12.0767Z" fill="#008080"/>
<path d="M33.5294 19.4446C32.0952 19.4446 30.8549 19.1399 29.8085 18.5306C28.7683 17.915 27.965 17.0594 27.3987 15.9638C26.8325 14.862 26.5493 13.5848 26.5493 12.1321C26.5493 10.6672 26.8325 9.38685 27.3987 8.2912C27.965 7.1894 28.7683 6.33382 29.8085 5.72444C30.8549 5.10891 32.0952 4.80115 33.5294 4.80115C34.9636 4.80115 36.2008 5.10891 37.2411 5.72444C38.2875 6.33382 39.0938 7.1894 39.6601 8.2912C40.2264 9.38685 40.5095 10.6672 40.5095 12.1321C40.5095 13.5848 40.2264 14.862 39.6601 15.9638C39.0938 17.0594 38.2875 17.915 37.2411 18.5306C36.2008 19.1399 34.9636 19.4446 33.5294 19.4446ZM33.5479 16.3977C34.2004 16.3977 34.7451 16.2131 35.1821 15.8438C35.6192 15.4683 35.9485 14.9574 36.1701 14.3111C36.3978 13.6648 36.5117 12.9292 36.5117 12.1044C36.5117 11.2796 36.3978 10.544 36.1701 9.89774C35.9485 9.25143 35.6192 8.74054 35.1821 8.36507C34.7451 7.98959 34.2004 7.80186 33.5479 7.80186C32.8893 7.80186 32.3353 7.98959 31.886 8.36507C31.4428 8.74054 31.1073 9.25143 30.8796 9.89774C30.658 10.544 30.5472 11.2796 30.5472 12.1044C30.5472 12.9292 30.658 13.6648 30.8796 14.3111C31.1073 14.9574 31.4428 15.4683 31.886 15.8438C32.3353 16.2131 32.8893 16.3977 33.5479 16.3977Z" fill="#008080"/>
<path d="M23.9708 0.258545V19.1676H20.0376V0.258545H23.9708Z" fill="#008080"/>
<path d="M12.8707 6.37074C12.7415 5.9214 12.5599 5.52439 12.326 5.17969C12.0921 4.82884 11.8059 4.53338 11.4673 4.29332C11.1349 4.04711 10.7533 3.85938 10.3224 3.73011C9.89773 3.60085 9.42685 3.53622 8.9098 3.53622C7.94342 3.53622 7.09399 3.77628 6.36151 4.25639C5.63518 4.73651 5.06889 5.43513 4.66264 6.35227C4.25639 7.26326 4.05327 8.37737 4.05327 9.6946C4.05327 11.0118 4.25331 12.1321 4.65341 13.0554C5.0535 13.9787 5.61979 14.6835 6.35227 15.1697C7.08475 15.6499 7.94957 15.8899 8.94673 15.8899C9.85156 15.8899 10.6241 15.7299 11.2642 15.4098C11.9105 15.0836 12.4029 14.625 12.7415 14.0341C13.0862 13.4432 13.2585 12.7446 13.2585 11.9382L14.071 12.0582H9.19602V9.0483H17.1087V11.4304C17.1087 13.0923 16.7578 14.5204 16.0561 15.7145C15.3544 16.9025 14.388 17.8196 13.157 18.4659C11.9259 19.1061 10.5163 19.4261 8.92827 19.4261C7.15554 19.4261 5.59825 19.0353 4.25639 18.2536C2.91454 17.4657 1.86813 16.3485 1.11719 14.902C0.372396 13.4493 0 11.7259 0 9.73153C0 8.19886 0.221591 6.83239 0.664773 5.6321C1.11411 4.42566 1.74195 3.40388 2.5483 2.56676C3.35464 1.72964 4.29332 1.09257 5.36435 0.65554C6.43537 0.218513 7.59564 0 8.84517 0C9.91619 0 10.9134 0.15696 11.8366 0.470881C12.7599 0.778646 13.5786 1.21567 14.2926 1.78196C15.0128 2.34825 15.6006 3.02225 16.0561 3.80398C16.5116 4.57955 16.804 5.43513 16.9332 6.37074H12.8707Z" fill="#008080"/>
</svg>
