<svg width="30" height="30" viewBox="0 0 30 30" fill="none" xmlns="http://www.w3.org/2000/svg">
<path d="M24.2282 13.3239H26.651C26.651 7.10949 21.9593 2.42261 15.7363 2.42261V4.8454C20.657 4.8454 24.2282 8.41053 24.2282 13.3239Z" fill="white"/>
<path d="M15.7491 9.69113C18.2966 9.69113 19.3832 10.7778 19.3832 13.3253H21.806C21.806 9.41857 19.6558 7.26834 15.7491 7.26834V9.69113ZM19.8944 16.2848C19.6617 16.0732 19.3558 15.9604 19.0414 15.9701C18.727 15.9798 18.4287 16.1113 18.2094 16.3368L15.3105 19.3181C14.6128 19.1848 13.21 18.7475 11.766 17.3072C10.322 15.862 9.88469 14.4555 9.75507 13.7626L12.7339 10.8626C12.9597 10.6434 13.0914 10.3451 13.1011 10.0306C13.1109 9.71608 12.9978 9.41014 12.786 9.1775L8.30988 4.25561C8.09794 4.02224 7.80337 3.88069 7.48874 3.86101C7.17411 3.84133 6.8642 3.94508 6.62483 4.15022L3.9961 6.40462C3.78667 6.61482 3.66166 6.89457 3.6448 7.19081C3.62663 7.49366 3.28017 14.6675 8.84289 20.2327C13.6957 25.0843 19.7745 25.4393 21.4487 25.4393C21.6934 25.4393 21.8436 25.432 21.8836 25.4296C22.1798 25.413 22.4594 25.2874 22.6685 25.0771L24.9217 22.4471C25.127 22.2079 25.231 21.8981 25.2115 21.5835C25.1921 21.2688 25.0507 20.9742 24.8175 20.7621L19.8944 16.2848Z" fill="white"/>
</svg>
